<svg width="440" height="83" viewBox="0 0 440 83" fill="none" xmlns="http://www.w3.org/2000/svg">
<path d="M118.261 38.4761H109.842L108.84 40.7964C108.511 41.5699 108.347 42.2086 108.347 42.7125C108.347 43.3804 108.617 43.8726 109.156 44.189C109.472 44.3765 110.252 44.5172 111.494 44.6109V45.2613H103.566V44.6109C104.422 44.482 105.125 44.1304 105.676 43.5562C106.226 42.9703 106.906 41.7691 107.715 39.9527L116.24 20.9332H116.574L125.17 40.48C125.99 42.3316 126.664 43.4976 127.191 43.9781C127.59 44.3414 128.152 44.5523 128.879 44.6109V45.2613H117.347V44.6109H117.822C118.748 44.6109 119.398 44.482 119.773 44.2242C120.031 44.0367 120.16 43.7672 120.16 43.4156C120.16 43.2047 120.125 42.9879 120.054 42.7652C120.031 42.6597 119.855 42.2203 119.527 41.4468L118.261 38.4761ZM117.664 37.1754L114.113 28.9664L110.457 37.1754H117.664ZM137.228 28.8257V30.9527C138.072 30.0386 138.881 29.3765 139.654 28.9664C140.427 28.5445 141.26 28.3336 142.15 28.3336C143.217 28.3336 144.101 28.6324 144.804 29.23C145.508 29.816 145.976 30.5484 146.211 31.4273C146.398 32.0953 146.492 33.3785 146.492 35.2769V41.6754C146.492 42.941 146.603 43.732 146.826 44.0484C147.06 44.3531 147.541 44.5464 148.267 44.6285V45.2613H139.953V44.6285C140.574 44.5464 141.019 44.2886 141.289 43.855C141.476 43.5621 141.57 42.8355 141.57 41.6754V34.3629C141.57 33.0152 141.517 32.1656 141.412 31.814C141.306 31.4625 141.125 31.1929 140.867 31.0054C140.621 30.8062 140.345 30.7066 140.041 30.7066C139.033 30.7066 138.095 31.4273 137.228 32.8687V41.6754C137.228 42.9058 137.34 43.6851 137.562 44.0132C137.797 44.3414 138.224 44.5464 138.845 44.6285V45.2613H130.531V44.6285C131.222 44.5582 131.715 44.3355 132.008 43.9605C132.207 43.7027 132.306 42.941 132.306 41.6754V32.3941C132.306 31.1519 132.189 30.3785 131.955 30.0738C131.732 29.7691 131.258 29.5699 130.531 29.4761V28.8257H137.228ZM166.531 21.4254V40.3394C166.531 41.6168 166.566 42.3726 166.636 42.607C166.73 42.9937 166.906 43.2808 167.164 43.4683C167.433 43.6558 167.896 43.773 168.552 43.8199V44.4L161.609 45.7535V43.1519C160.777 44.1597 160.033 44.8453 159.377 45.2086C158.732 45.5718 158 45.7535 157.179 45.7535C155.082 45.7535 153.424 44.816 152.205 42.941C151.22 41.4175 150.728 39.5484 150.728 37.3336C150.728 35.564 151.033 33.982 151.642 32.5875C152.252 31.1812 153.084 30.1207 154.138 29.4058C155.205 28.691 156.347 28.3336 157.566 28.3336C158.351 28.3336 159.049 28.4859 159.658 28.7906C160.267 29.0953 160.918 29.6285 161.609 30.3902V25.4332C161.609 24.1793 161.556 23.4234 161.451 23.1656C161.31 22.8257 161.099 22.5738 160.818 22.4097C160.537 22.2457 160.01 22.1636 159.236 22.1636V21.4254H166.531ZM161.609 32.5699C160.742 30.9058 159.681 30.0738 158.427 30.0738C157.994 30.0738 157.636 30.191 157.355 30.4254C156.922 30.7886 156.564 31.4273 156.283 32.3414C156.013 33.2554 155.879 34.6558 155.879 36.5425C155.879 38.6168 156.031 40.1519 156.336 41.148C156.64 42.1441 157.056 42.8648 157.584 43.3101C157.853 43.5328 158.222 43.6441 158.691 43.6441C159.722 43.6441 160.695 42.8355 161.609 41.2183V32.5699ZM177.412 28.8257V32.5523C178.502 30.8531 179.457 29.7281 180.277 29.1773C181.097 28.6148 181.888 28.3336 182.65 28.3336C183.306 28.3336 183.828 28.5386 184.215 28.9488C184.613 29.3472 184.812 29.9156 184.812 30.6539C184.812 31.439 184.619 32.0484 184.232 32.482C183.857 32.9156 183.4 33.1324 182.861 33.1324C182.24 33.1324 181.701 32.9332 181.244 32.5347C180.787 32.1363 180.517 31.9136 180.435 31.8668C180.318 31.7964 180.183 31.7613 180.031 31.7613C179.691 31.7613 179.369 31.8902 179.064 32.148C178.584 32.5464 178.22 33.1148 177.974 33.8531C177.599 34.9898 177.412 36.2437 177.412 37.6148V41.3941L177.429 42.3785C177.429 43.0464 177.47 43.4742 177.552 43.6617C177.693 43.9781 177.898 44.2125 178.168 44.3648C178.449 44.5054 178.918 44.5933 179.574 44.6285V45.2613H170.697V44.6285C171.412 44.5699 171.892 44.3765 172.138 44.0484C172.396 43.7086 172.525 42.8238 172.525 41.3941V32.3062C172.525 31.3687 172.478 30.7711 172.385 30.5132C172.267 30.1851 172.097 29.9449 171.875 29.7925C171.652 29.6402 171.26 29.5347 170.697 29.4761V28.8257H177.412ZM199.842 36.4547H190.824C190.929 38.6343 191.51 40.357 192.564 41.6226C193.373 42.5953 194.345 43.0816 195.482 43.0816C196.185 43.0816 196.824 42.8882 197.398 42.5015C197.972 42.1031 198.588 41.3941 199.244 40.3746L199.842 40.7613C198.951 42.5777 197.967 43.8668 196.888 44.6285C195.81 45.3785 194.562 45.7535 193.144 45.7535C190.707 45.7535 188.861 44.816 187.607 42.941C186.599 41.4293 186.095 39.5543 186.095 37.316C186.095 34.5738 186.834 32.3941 188.31 30.7769C189.799 29.148 191.539 28.3336 193.531 28.3336C195.195 28.3336 196.636 29.0191 197.855 30.3902C199.086 31.7496 199.748 33.7711 199.842 36.4547ZM195.517 35.2769C195.517 33.3902 195.412 32.0953 195.201 31.3922C195.002 30.689 194.685 30.1558 194.252 29.7925C194.006 29.5816 193.677 29.4761 193.267 29.4761C192.658 29.4761 192.16 29.775 191.773 30.3726C191.082 31.4156 190.736 32.8453 190.736 34.6617V35.2769H195.517ZM209.457 45.9293L204.148 33.7476C203.351 31.9078 202.76 30.7769 202.373 30.355C201.998 29.9332 201.541 29.6402 201.002 29.4761V28.8257H209.738V29.4761C209.164 29.4996 208.76 29.6109 208.525 29.8101C208.291 30.0093 208.174 30.2496 208.174 30.5308C208.174 30.9761 208.467 31.855 209.052 33.1675L211.865 39.6011L213.781 34.6265C214.472 32.857 214.818 31.6265 214.818 30.9351C214.818 30.5015 214.672 30.1558 214.379 29.898C214.097 29.6402 213.594 29.4996 212.867 29.4761V28.8257H218.369V29.4761C217.83 29.5347 217.39 29.7457 217.051 30.1089C216.711 30.4605 216.142 31.6734 215.345 33.7476L210.652 45.9293C209.469 48.9761 208.59 50.8511 208.015 51.5543C207.207 52.5386 206.193 53.0308 204.974 53.0308C204.002 53.0308 203.211 52.7496 202.601 52.1871C202.004 51.6363 201.705 50.9683 201.705 50.1832C201.705 49.5035 201.91 48.941 202.32 48.4957C202.742 48.0504 203.258 47.8277 203.867 47.8277C204.453 47.8277 204.922 48.0152 205.273 48.3902C205.636 48.7652 205.824 49.3453 205.836 50.1304C205.847 50.5757 205.9 50.8629 205.994 50.9918C206.088 51.1207 206.222 51.1851 206.398 51.1851C206.679 51.1851 206.978 51.0152 207.295 50.6754C207.763 50.1832 208.314 49.0582 208.947 47.3004L209.457 45.9293Z" fill="white"/>
<path d="M401.42 2.87555H64.8535V65.2386H401.42V2.87555Z" stroke="white" stroke-miterlimit="10"/>
<path d="M390.113 11.2649H46.2295V74.9837H390.113V11.2649Z" stroke="white" stroke-miterlimit="10"/>
<path d="M240.925 33.9698L249.31 44.464C250.494 45.9406 251.513 46.9425 252.369 47.4698C252.99 47.8448 253.646 48.0323 254.337 48.0323V48.6827H241.927V48.0323C242.712 47.962 243.216 47.839 243.439 47.6632C243.673 47.4874 243.791 47.2706 243.791 47.0128C243.791 46.5206 243.251 45.5948 242.173 44.2355L236.707 37.3624L235.828 38.1007V44.6046C235.828 45.8468 235.898 46.6202 236.039 46.9249C236.179 47.2296 236.449 47.4933 236.847 47.7159C237.246 47.9269 237.884 48.0323 238.763 48.0323V48.6827H226.74V48.0323H227.531C228.222 48.0323 228.779 47.9093 229.201 47.6632C229.505 47.4991 229.74 47.2179 229.904 46.8195C230.033 46.5382 230.097 45.7999 230.097 44.6046V28.9249C230.097 27.7062 230.033 26.9445 229.904 26.6398C229.775 26.3351 229.511 26.0714 229.113 25.8488C228.726 25.6144 228.199 25.4972 227.531 25.4972H226.74V24.8468H238.605V25.4972C237.796 25.4972 237.181 25.6144 236.759 25.8488C236.455 26.0128 236.214 26.2882 236.039 26.6749C235.898 26.9679 235.828 27.7179 235.828 28.9249V36.3429L244.669 29.1886C245.9 28.1925 246.515 27.3956 246.515 26.798C246.515 26.3527 246.263 26.0011 245.759 25.7433C245.501 25.6144 244.863 25.5323 243.843 25.4972V24.8468H253.142V25.4972C252.31 25.5558 251.654 25.7081 251.173 25.9542C250.705 26.1886 249.615 26.9972 247.904 28.38L240.925 33.9698ZM261.597 24.8468V45.2726C261.597 46.4327 261.732 47.1769 262.001 47.505C262.271 47.8214 262.798 48.0031 263.583 48.0499V48.6827H254.707V48.0499C255.433 48.0265 255.972 47.8156 256.324 47.4171C256.558 47.1476 256.675 46.4327 256.675 45.2726V28.257C256.675 27.1085 256.541 26.3761 256.271 26.0597C256.001 25.7316 255.48 25.5441 254.707 25.4972V24.8468H261.597ZM280.792 32.0714L278.806 34.3741C279.568 35.4171 280.072 36.3019 280.318 37.0284C280.634 37.9777 280.792 39.0851 280.792 40.3507C280.792 42.0382 280.476 43.5792 279.843 44.9738C279.222 46.3566 278.308 47.4054 277.101 48.1202C275.894 48.8234 274.587 49.1749 273.181 49.1749C272.15 49.1749 271.236 49.0109 270.439 48.6827C269.654 48.3663 268.798 47.8097 267.873 47.0128L265.992 49.1749L265.166 48.4015L267.117 46.1163C266.519 45.1671 266.109 44.3292 265.886 43.6027C265.605 42.6534 265.464 41.6281 265.464 40.5265C265.464 38.1827 266.138 36.1378 267.486 34.3917C268.833 32.6339 270.732 31.755 273.181 31.755C274.154 31.755 275.003 31.8956 275.73 32.1769C276.457 32.4464 277.212 32.9034 277.998 33.548L279.949 31.298L280.792 32.0714ZM275.537 36.3781C275.419 35.1007 275.156 34.2218 274.746 33.7413C274.335 33.2491 273.855 33.0031 273.304 33.0031C272.812 33.0031 272.431 33.0909 272.162 33.2667C271.787 33.5245 271.476 33.9347 271.23 34.4972C270.996 35.048 270.837 36.0734 270.755 37.5734C270.744 37.9718 270.726 39.4835 270.703 42.1085L275.537 36.3781ZM270.703 43.7784C270.761 45.3722 271.019 46.462 271.476 47.048C271.933 47.6339 272.472 47.9269 273.093 47.9269C273.621 47.9269 274.031 47.8097 274.324 47.5753C274.734 47.2472 275.044 46.7257 275.255 46.0109C275.537 45.0616 275.677 43.5851 275.677 41.5812C275.677 41.464 275.66 40.2863 275.625 38.048L270.703 43.7784ZM299.162 24.8468V43.7609C299.162 45.0382 299.197 45.7941 299.267 46.0284C299.361 46.4152 299.537 46.7023 299.794 46.8898C300.064 47.0773 300.527 47.1945 301.183 47.2413V47.8214L294.24 49.1749V46.5734C293.408 47.5812 292.664 48.2667 292.007 48.63C291.363 48.9933 290.63 49.1749 289.81 49.1749C287.712 49.1749 286.054 48.2374 284.835 46.3624C283.851 44.839 283.359 42.9698 283.359 40.755C283.359 38.9855 283.664 37.4034 284.273 36.0089C284.882 34.6027 285.714 33.5421 286.769 32.8273C287.835 32.1124 288.978 31.755 290.197 31.755C290.982 31.755 291.679 31.9073 292.289 32.212C292.898 32.5167 293.548 33.0499 294.24 33.8116V28.8546C294.24 27.6007 294.187 26.8448 294.082 26.587C293.941 26.2472 293.73 25.9952 293.449 25.8312C293.167 25.6671 292.64 25.5851 291.867 25.5851V24.8468H299.162ZM294.24 35.9913C293.373 34.3273 292.312 33.4952 291.058 33.4952C290.625 33.4952 290.267 33.6124 289.986 33.8468C289.552 34.2101 289.195 34.8488 288.914 35.7628C288.644 36.6769 288.509 38.0773 288.509 39.964C288.509 42.0382 288.662 43.5734 288.966 44.5695C289.271 45.5656 289.687 46.2863 290.214 46.7316C290.484 46.9542 290.853 47.0656 291.322 47.0656C292.353 47.0656 293.326 46.257 294.24 44.6398V35.9913ZM309.744 26.2355V32.2472H313.646V33.9874H309.744V44.13C309.744 45.0792 309.785 45.6945 309.867 45.9757C309.96 46.2452 310.119 46.4679 310.341 46.6437C310.564 46.8077 310.769 46.8898 310.957 46.8898C311.718 46.8898 312.439 46.3097 313.119 45.1495L313.646 45.5363C312.697 47.7863 311.156 48.9113 309.023 48.9113C307.98 48.9113 307.095 48.6241 306.369 48.0499C305.654 47.464 305.197 46.8136 304.998 46.0988C304.88 45.7003 304.822 44.6222 304.822 42.8644V33.9874H302.677V33.3722C304.154 32.3292 305.408 31.2335 306.439 30.0851C307.482 28.9366 308.39 27.6534 309.164 26.2355H309.744Z" fill="white"/>
</svg>
